/home/xinjie/Newton_Connection/Newton/phystwin_bridge/tools/core/newton_import_ir.py:1209: UserWarning: tabletop_table_box: PhysTwin ground collide_elas is present in IR, but native Newton SemiImplicit has no direct 1-to-1 restitution field for particle-vs-shape contacts. Ground bounce will therefore use native Newton ground ke/kd/kf defaults unless --ground-restitution-mode=approximate-native is selected.
  warnings.warn(message)
ffmpeg version 6.1.1-3ubuntu5+esm7 Copyright (c) 2000-2023 the FFmpeg developers
  built with gcc 13 (Ubuntu 13.3.0-6ubuntu2~24.04)
  configuration: --prefix=/usr --extra-version=3ubuntu5+esm7 --toolchain=hardened --libdir=/usr/lib/x86_64-linux-gnu --incdir=/usr/include/x86_64-linux-gnu --arch=amd64 --enable-gpl --disable-stripping --disable-omx --enable-gnutls --enable-libaom --enable-libass --enable-libbs2b --enable-libcaca --enable-libcdio --enable-libcodec2 --enable-libdav1d --enable-libflite --enable-libfontconfig --enable-libfreetype --enable-libfribidi --enable-libglslang --enable-libgme --enable-libgsm --enable-libharfbuzz --enable-libmp3lame --enable-libmysofa --enable-libopenjpeg --enable-libopenmpt --enable-libopus --enable-librubberband --enable-libshine --enable-libsnappy --enable-libsoxr --enable-libspeex --enable-libtheora --enable-libtwolame --enable-libvidstab --enable-libvorbis --enable-libvpx --enable-libwebp --enable-libx265 --enable-libxml2 --enable-libxvid --enable-libzimg --enable-openal --enable-opencl --enable-opengl --disable-sndio --enable-libvpl --disable-libmfx --enable-libdc1394 --enable-libdrm --enable-libiec61883 --enable-chromaprint --enable-frei0r --enable-ladspa --enable-libbluray --enable-libjack --enable-libpulse --enable-librabbitmq --enable-librist --enable-libsrt --enable-libssh --enable-libsvtav1 --enable-libx264 --enable-libzmq --enable-libzvbi --enable-lv2 --enable-sdl2 --enable-libplacebo --enable-librav1e --enable-pocketsphinx --enable-librsvg --enable-libjxl --enable-shared
  libavutil      58. 29.100 / 58. 29.100
  libavcodec     60. 31.102 / 60. 31.102
  libavformat    60. 16.100 / 60. 16.100
  libavdevice    60.  3.100 / 60.  3.100
  libavfilter     9. 12.100 /  9. 12.100
  libswscale      7.  5.100 /  7.  5.100
  libswresample   4. 12.100 /  4. 12.100
  libpostproc    57.  3.100 / 57.  3.100
Input #0, rawvideo, from 'fd:':
  Duration: N/A, start: 0.000000, bitrate: 663552 kb/s
  Stream #0:0: Video: rawvideo (RGB[24] / 0x18424752), rgb24, 1280x720, 663552 kb/s, 30 tbr, 30 tbn
Stream mapping:
  Stream #0:0 -> #0:0 (rawvideo (native) -> h264 (libx264))
[libx264 @ 0x60b63cee8480] using cpu capabilities: MMX2 SSE2Fast SSSE3 SSE4.2 AVX FMA3 BMI2 AVX2
[libx264 @ 0x60b63cee8480] profile High, level 3.1, 4:2:0, 8-bit
[libx264 @ 0x60b63cee8480] 264 - core 164 r3108 31e19f9 - H.264/MPEG-4 AVC codec - Copyleft 2003-2023 - http://www.videolan.org/x264.html - options: cabac=1 ref=3 deblock=1:0:0 analyse=0x3:0x113 me=hex subme=7 psy=1 psy_rd=1.00:0.00 mixed_ref=1 me_range=16 chroma_me=1 trellis=1 8x8dct=1 cqm=0 deadzone=21,11 fast_pskip=1 chroma_qp_offset=-2 threads=22 lookahead_threads=3 sliced_threads=0 nr=0 decimate=1 interlaced=0 bluray_compat=0 constrained_intra=0 bframes=3 b_pyramid=2 b_adapt=1 b_bias=0 direct=1 weightb=1 open_gop=0 weightp=2 keyint=250 keyint_min=25 scenecut=40 intra_refresh=0 rc_lookahead=40 rc=crf mbtree=1 crf=18.0 qcomp=0.60 qpmin=0 qpmax=69 qpstep=4 ip_ratio=1.40 aq=1:1.00
Output #0, mp4, to '/home/xinjie/Newton_Connection/Newton/phystwin_bridge/results/robot_rope_franka/candidates/20260401_092422_fixeddt_c09_contactfix/presentation/work/robot_rope_tabletop_hero.mp4':
  Metadata:
    encoder         : Lavf60.16.100
  Stream #0:0: Video: h264 (avc1 / 0x31637661), yuv420p(tv, progressive), 1280x720, q=2-31, 30 fps, 15360 tbn
    Metadata:
      encoder         : Lavc60.31.102 libx264
    Side data:
      cpb: bitrate max/min/avg: 0/0/0 buffer size: 0 vbv_delay: N/A
frame=    0 fps=0.0 q=0.0 size=       0kB time=N/A bitrate=N/A speed=N/A    frame=   33 fps=0.0 q=24.0 size=       0kB time=00:00:01.03 bitrate=   0.4kbits/s speed=2.05x    [out#0/mp4 @ 0x60b63cee6c80] video:760kB audio:0kB subtitle:0kB other streams:0kB global headers:0kB muxing overhead: 0.395329%
frame=  186 fps=177 q=-1.0 Lsize=     763kB time=00:00:06.10 bitrate=1024.5kbits/s speed=5.81x    
[libx264 @ 0x60b63cee8480] frame I:1     Avg QP:11.88  size: 89089
[libx264 @ 0x60b63cee8480] frame P:48    Avg QP:16.79  size:  8189
[libx264 @ 0x60b63cee8480] frame B:137   Avg QP:22.91  size:  2155
[libx264 @ 0x60b63cee8480] consecutive B-frames:  1.1%  1.1%  3.2% 94.6%
[libx264 @ 0x60b63cee8480] mb I  I16..4: 20.4% 35.9% 43.6%
[libx264 @ 0x60b63cee8480] mb P  I16..4:  0.2%  0.5%  0.3%  P16..4:  5.0%  3.2%  2.7%  0.0%  0.0%    skip:88.1%
[libx264 @ 0x60b63cee8480] mb B  I16..4:  0.0%  0.0%  0.0%  B16..8:  4.3%  1.6%  0.7%  direct: 0.7%  skip:92.6%  L0:35.9% L1:40.9% BI:23.2%
[libx264 @ 0x60b63cee8480] 8x8 transform intra:42.1% inter:20.7%
[libx264 @ 0x60b63cee8480] coded y,uvDC,uvAC intra: 34.8% 42.0% 36.4% inter: 2.5% 0.8% 0.4%
[libx264 @ 0x60b63cee8480] i16 v,h,dc,p: 57% 26%  8%  9%
[libx264 @ 0x60b63cee8480] i8 v,h,dc,ddl,ddr,vr,hd,vl,hu: 41% 10% 32%  1%  7%  3%  3%  1%  2%
[libx264 @ 0x60b63cee8480] i4 v,h,dc,ddl,ddr,vr,hd,vl,hu: 18% 27% 21%  4%  7%  4% 11%  2%  6%
[libx264 @ 0x60b63cee8480] i8c dc,h,v,p: 66% 20% 12%  2%
[libx264 @ 0x60b63cee8480] Weighted P-Frames: Y:0.0% UV:0.0%
[libx264 @ 0x60b63cee8480] ref P L0: 64.6% 12.2% 17.5%  5.7%
[libx264 @ 0x60b63cee8480] ref B L0: 84.2% 13.3%  2.5%
[libx264 @ 0x60b63cee8480] ref B L1: 93.7%  6.3%
[libx264 @ 0x60b63cee8480] kb/s:1003.09
/home/xinjie/Newton_Connection/Newton/phystwin_bridge/tools/core/newton_import_ir.py:1209: UserWarning: tabletop_table_box: PhysTwin ground collide_elas is present in IR, but native Newton SemiImplicit has no direct 1-to-1 restitution field for particle-vs-shape contacts. Ground bounce will therefore use native Newton ground ke/kd/kf defaults unless --ground-restitution-mode=approximate-native is selected.
  warnings.warn(message)
ffmpeg version 6.1.1-3ubuntu5+esm7 Copyright (c) 2000-2023 the FFmpeg developers
  built with gcc 13 (Ubuntu 13.3.0-6ubuntu2~24.04)
  configuration: --prefix=/usr --extra-version=3ubuntu5+esm7 --toolchain=hardened --libdir=/usr/lib/x86_64-linux-gnu --incdir=/usr/include/x86_64-linux-gnu --arch=amd64 --enable-gpl --disable-stripping --disable-omx --enable-gnutls --enable-libaom --enable-libass --enable-libbs2b --enable-libcaca --enable-libcdio --enable-libcodec2 --enable-libdav1d --enable-libflite --enable-libfontconfig --enable-libfreetype --enable-libfribidi --enable-libglslang --enable-libgme --enable-libgsm --enable-libharfbuzz --enable-libmp3lame --enable-libmysofa --enable-libopenjpeg --enable-libopenmpt --enable-libopus --enable-librubberband --enable-libshine --enable-libsnappy --enable-libsoxr --enable-libspeex --enable-libtheora --enable-libtwolame --enable-libvidstab --enable-libvorbis --enable-libvpx --enable-libwebp --enable-libx265 --enable-libxml2 --enable-libxvid --enable-libzimg --enable-openal --enable-opencl --enable-opengl --disable-sndio --enable-libvpl --disable-libmfx --enable-libdc1394 --enable-libdrm --enable-libiec61883 --enable-chromaprint --enable-frei0r --enable-ladspa --enable-libbluray --enable-libjack --enable-libpulse --enable-librabbitmq --enable-librist --enable-libsrt --enable-libssh --enable-libsvtav1 --enable-libx264 --enable-libzmq --enable-libzvbi --enable-lv2 --enable-sdl2 --enable-libplacebo --enable-librav1e --enable-pocketsphinx --enable-librsvg --enable-libjxl --enable-shared
  libavutil      58. 29.100 / 58. 29.100
  libavcodec     60. 31.102 / 60. 31.102
  libavformat    60. 16.100 / 60. 16.100
  libavdevice    60.  3.100 / 60.  3.100
  libavfilter     9. 12.100 /  9. 12.100
  libswscale      7.  5.100 /  7.  5.100
  libswresample   4. 12.100 /  4. 12.100
  libpostproc    57.  3.100 / 57.  3.100
Input #0, rawvideo, from 'fd:':
  Duration: N/A, start: 0.000000, bitrate: 663552 kb/s
  Stream #0:0: Video: rawvideo (RGB[24] / 0x18424752), rgb24, 1280x720, 663552 kb/s, 30 tbr, 30 tbn
Stream mapping:
  Stream #0:0 -> #0:0 (rawvideo (native) -> h264 (libx264))
[libx264 @ 0x629e08661480] using cpu capabilities: MMX2 SSE2Fast SSSE3 SSE4.2 AVX FMA3 BMI2 AVX2
[libx264 @ 0x629e08661480] profile High, level 3.1, 4:2:0, 8-bit
[libx264 @ 0x629e08661480] 264 - core 164 r3108 31e19f9 - H.264/MPEG-4 AVC codec - Copyleft 2003-2023 - http://www.videolan.org/x264.html - options: cabac=1 ref=3 deblock=1:0:0 analyse=0x3:0x113 me=hex subme=7 psy=1 psy_rd=1.00:0.00 mixed_ref=1 me_range=16 chroma_me=1 trellis=1 8x8dct=1 cqm=0 deadzone=21,11 fast_pskip=1 chroma_qp_offset=-2 threads=22 lookahead_threads=3 sliced_threads=0 nr=0 decimate=1 interlaced=0 bluray_compat=0 constrained_intra=0 bframes=3 b_pyramid=2 b_adapt=1 b_bias=0 direct=1 weightb=1 open_gop=0 weightp=2 keyint=250 keyint_min=25 scenecut=40 intra_refresh=0 rc_lookahead=40 rc=crf mbtree=1 crf=18.0 qcomp=0.60 qpmin=0 qpmax=69 qpstep=4 ip_ratio=1.40 aq=1:1.00
Output #0, mp4, to '/home/xinjie/Newton_Connection/Newton/phystwin_bridge/results/robot_rope_franka/candidates/20260401_092422_fixeddt_c09_contactfix/debug/work/robot_rope_tabletop_hero_debug.mp4':
  Metadata:
    encoder         : Lavf60.16.100
  Stream #0:0: Video: h264 (avc1 / 0x31637661), yuv420p(tv, progressive), 1280x720, q=2-31, 30 fps, 15360 tbn
    Metadata:
      encoder         : Lavc60.31.102 libx264
    Side data:
      cpb: bitrate max/min/avg: 0/0/0 buffer size: 0 vbv_delay: N/A
frame=    0 fps=0.0 q=0.0 size=       0kB time=N/A bitrate=N/A speed=N/A    frame=    0 fps=0.0 q=0.0 size=       0kB time=N/A bitrate=N/A speed=N/A    frame=   40 fps= 40 q=24.0 size=       0kB time=00:00:01.26 bitrate=   0.3kbits/s speed=1.26x    frame=   94 fps= 62 q=24.0 size=     256kB time=00:00:03.06 bitrate= 684.0kbits/s speed=2.03x    [out#0/mp4 @ 0x629e0865fc80] video:711kB audio:0kB subtitle:0kB other streams:0kB global headers:0kB muxing overhead: 0.421396%
frame=  186 fps=104 q=-1.0 Lsize=     714kB time=00:00:06.10 bitrate= 958.9kbits/s speed=3.42x    
[libx264 @ 0x629e08661480] frame I:1     Avg QP:12.00  size: 54053
[libx264 @ 0x629e08661480] frame P:47    Avg QP:18.07  size:  8631
[libx264 @ 0x629e08661480] frame B:138   Avg QP:24.95  size:  1940
[libx264 @ 0x629e08661480] consecutive B-frames:  0.5%  0.0%  4.8% 94.6%
[libx264 @ 0x629e08661480] mb I  I16..4: 37.2% 38.9% 23.9%
[libx264 @ 0x629e08661480] mb P  I16..4:  0.2%  0.3%  0.4%  P16..4:  4.3%  3.1%  2.8%  0.0%  0.0%    skip:88.9%
[libx264 @ 0x629e08661480] mb B  I16..4:  0.0%  0.0%  0.0%  B16..8:  3.5%  1.4%  0.7%  direct: 0.6%  skip:93.6%  L0:34.4% L1:42.6% BI:23.0%
[libx264 @ 0x629e08661480] 8x8 transform intra:39.3% inter:22.6%
[libx264 @ 0x629e08661480] coded y,uvDC,uvAC intra: 26.9% 25.4% 15.0% inter: 2.4% 0.8% 0.4%
[libx264 @ 0x629e08661480] i16 v,h,dc,p: 76% 17%  4%  3%
[libx264 @ 0x629e08661480] i8 v,h,dc,ddl,ddr,vr,hd,vl,hu: 46% 11% 35%  1%  2%  1%  2%  1%  2%
[libx264 @ 0x629e08661480] i4 v,h,dc,ddl,ddr,vr,hd,vl,hu: 24% 26% 16%  4%  7%  6%  8%  4%  5%
[libx264 @ 0x629e08661480] i8c dc,h,v,p: 71% 18% 10%  1%
[libx264 @ 0x629e08661480] Weighted P-Frames: Y:0.0% UV:0.0%
[libx264 @ 0x629e08661480] ref P L0: 66.2% 15.4% 13.8%  4.6%
[libx264 @ 0x629e08661480] ref B L0: 86.9% 11.1%  2.0%
[libx264 @ 0x629e08661480] ref B L1: 95.6%  4.4%
[libx264 @ 0x629e08661480] kb/s:938.54
/home/xinjie/Newton_Connection/Newton/phystwin_bridge/tools/core/newton_import_ir.py:1209: UserWarning: tabletop_table_box: PhysTwin ground collide_elas is present in IR, but native Newton SemiImplicit has no direct 1-to-1 restitution field for particle-vs-shape contacts. Ground bounce will therefore use native Newton ground ke/kd/kf defaults unless --ground-restitution-mode=approximate-native is selected.
  warnings.warn(message)
